<svg width="380" height="75" viewBox="0 0 380 75" fill="none" xmlns="http://www.w3.org/2000/svg">
<path d="M68.192 39.016C68.192 45.928 66.784 52.04 63.968 57.352C61.152 62.664 57.184 66.856 52.064 69.928C46.944 72.936 40.896 74.44 33.92 74.44C27.008 74.44 21.088 72.968 16.16 70.024C11.232 67.08 7.424 63.016 4.736 57.832C2.112 52.648 0.8 46.76 0.8 40.168C0.8 33.32 2.208 27.24 5.024 21.928C7.84 16.552 11.808 12.36 16.928 9.352C22.112 6.28 28.16 4.744 35.072 4.744C41.92 4.744 47.808 6.216 52.736 9.16C57.664 12.104 61.472 16.168 64.16 21.352C66.848 26.472 68.192 32.36 68.192 39.016ZM56.288 39.976C56.288 36.072 55.904 32.264 55.136 28.552C54.368 24.84 53.12 21.48 51.392 18.472C49.728 15.464 47.52 13.096 44.768 11.368C42.016 9.576 38.656 8.68 34.688 8.68C30.656 8.68 27.232 9.576 24.416 11.368C21.664 13.16 19.424 15.528 17.696 18.472C16.032 21.416 14.784 24.712 13.952 28.36C13.184 32.008 12.8 35.72 12.8 39.496C12.8 43.208 13.184 46.92 13.952 50.632C14.784 54.28 16.064 57.608 17.792 60.616C19.52 63.624 21.792 66.056 24.608 67.912C27.488 69.704 30.944 70.6 34.976 70.6C38.944 70.6 42.272 69.736 44.96 68.008C47.712 66.28 49.92 63.976 51.584 61.096C53.248 58.152 54.432 54.856 55.136 51.208C55.904 47.56 56.288 43.816 56.288 39.976ZM207.982 74.248L206.446 73.576L206.062 66.952C203.822 69.384 201.518 71.208 199.15 72.424C196.846 73.576 194.286 74.152 191.47 74.152C187.502 74.152 184.014 73.096 181.006 70.984C178.062 68.808 175.79 65.992 174.19 62.536C172.59 59.08 171.79 55.336 171.79 51.304C171.79 46.632 172.782 42.376 174.766 38.536C176.814 34.696 179.662 31.624 183.31 29.32C187.022 26.952 191.342 25.768 196.27 25.768C197.742 25.768 199.278 25.896 200.878 26.152C202.478 26.344 204.142 26.696 205.87 27.208V14.92C205.87 12.936 205.678 11.464 205.294 10.504C204.91 9.48 204.142 8.776 202.99 8.392C201.902 7.944 200.238 7.624 197.998 7.432C197.806 6.6 197.806 5.736 197.998 4.84C200.558 4.52 203.182 4.04 205.87 3.4C208.558 2.696 211.31 1.73599 214.126 0.519995L215.758 1.096C215.694 2.504 215.63 4.10399 215.566 5.89599C215.566 7.688 215.566 9.64 215.566 11.752V59.368C215.566 61.8 215.662 63.624 215.854 64.84C216.046 66.056 216.622 66.92 217.582 67.432C218.542 67.88 220.174 68.296 222.478 68.68C222.67 69.512 222.67 70.376 222.478 71.272C219.918 71.656 217.422 72.072 214.99 72.52C212.558 72.968 210.222 73.544 207.982 74.248ZM205.966 35.368C203.214 31.592 199.598 29.704 195.118 29.704C190.702 29.704 187.374 31.336 185.134 34.6C182.894 37.8 181.774 42.248 181.774 47.944C181.774 51.272 182.222 54.472 183.118 57.544C184.014 60.616 185.486 63.144 187.534 65.128C189.582 67.112 192.302 68.104 195.694 68.104C199.982 68.104 203.406 66.248 205.966 62.536V35.368Z" fill="#4C90F6"/>
<path d="M102.441 73.096C100.649 73.096 98.7927 73.064 96.8727 73C94.9527 72.936 92.8727 72.904 90.6327 72.904C88.5847 72.904 86.5047 72.936 84.3927 73C82.3447 73.064 80.3607 73.096 78.4407 73.096C78.2487 72.072 78.2487 71.08 78.4407 70.12C80.6167 69.992 82.2167 69.8 83.2407 69.544C84.2647 69.224 84.9367 68.584 85.2567 67.624C85.5767 66.664 85.7367 65.128 85.7367 63.016V41.512C85.7367 39.016 85.6407 37.16 85.4487 35.944C85.2567 34.728 84.6487 33.896 83.6247 33.448C82.6647 32.936 80.9687 32.52 78.5367 32.2C78.3447 31.304 78.3447 30.472 78.5367 29.704C81.3527 29.192 84.0407 28.552 86.6007 27.784C89.1607 27.016 91.6247 26.184 93.9927 25.288L95.6247 25.864C95.5607 27.848 95.4967 29.704 95.4327 31.432C95.4327 33.16 95.4327 34.792 95.4327 36.328V62.056C95.4327 64.552 95.5607 66.344 95.8167 67.432C96.1367 68.52 96.7767 69.224 97.7367 69.544C98.7607 69.8 100.329 69.992 102.441 70.12C102.633 71.08 102.633 72.072 102.441 73.096ZM83.2407 8.96799C83.2407 7.112 83.8807 5.544 85.1607 4.264C86.5047 2.984 88.1047 2.34399 89.9607 2.34399C91.7527 2.34399 93.2887 2.984 94.5687 4.264C95.9127 5.544 96.5847 7.08 96.5847 8.872C96.5847 10.536 95.9447 12.072 94.6647 13.48C93.3847 14.824 91.7527 15.496 89.7687 15.496C87.9767 15.496 86.4407 14.856 85.1607 13.576C83.8807 12.296 83.2407 10.76 83.2407 8.96799ZM296.304 73.096C294.512 73.096 292.656 73.064 290.736 73C288.816 72.936 286.736 72.904 284.496 72.904C282.448 72.904 280.368 72.936 278.256 73C276.208 73.064 274.224 73.096 272.304 73.096C272.112 72.072 272.112 71.08 272.304 70.12C274.48 69.992 276.08 69.8 277.104 69.544C278.128 69.224 278.8 68.584 279.12 67.624C279.44 66.664 279.6 65.128 279.6 63.016V41.512C279.6 39.016 279.504 37.16 279.312 35.944C279.12 34.728 278.512 33.896 277.488 33.448C276.528 32.936 274.832 32.52 272.4 32.2C272.208 31.304 272.208 30.472 272.4 29.704C275.216 29.192 277.904 28.552 280.464 27.784C283.024 27.016 285.488 26.184 287.856 25.288L289.488 25.864C289.424 27.848 289.36 29.704 289.296 31.432C289.296 33.16 289.296 34.792 289.296 36.328V62.056C289.296 64.552 289.424 66.344 289.68 67.432C290 68.52 290.64 69.224 291.6 69.544C292.624 69.8 294.192 69.992 296.304 70.12C296.496 71.08 296.496 72.072 296.304 73.096ZM277.104 8.96799C277.104 7.112 277.744 5.544 279.024 4.264C280.368 2.984 281.968 2.34399 283.824 2.34399C285.616 2.34399 287.152 2.984 288.432 4.264C289.776 5.544 290.448 7.08 290.448 8.872C290.448 10.536 289.808 12.072 288.528 13.48C287.248 14.824 285.616 15.496 283.632 15.496C281.84 15.496 280.304 14.856 279.024 13.576C277.744 12.296 277.104 10.76 277.104 8.96799Z" fill="#ED4D3C"/>
<path d="M139.963 73.096C139.835 72.072 139.835 71.08 139.963 70.12C141.947 69.992 143.419 69.8 144.379 69.544C145.339 69.224 145.979 68.584 146.299 67.624C146.619 66.664 146.779 65.128 146.779 63.016V43.624C146.779 39.784 146.171 36.936 144.955 35.08C143.803 33.16 141.467 32.2 137.947 32.2C136.091 32.2 134.299 32.552 132.571 33.256C130.843 33.896 128.955 35.144 126.907 37V62.056C126.907 64.552 127.035 66.344 127.291 67.432C127.611 68.52 128.251 69.224 129.211 69.544C130.171 69.8 131.675 69.992 133.723 70.12C133.851 71.08 133.851 72.072 133.723 73.096C131.931 73.096 130.043 73.064 128.059 73C126.139 72.936 124.059 72.904 121.819 72.904C119.771 72.904 117.755 72.936 115.771 73C113.787 73.064 111.835 73.096 109.915 73.096C109.723 72.072 109.723 71.08 109.915 70.12C112.091 69.992 113.691 69.8 114.715 69.544C115.739 69.224 116.411 68.584 116.731 67.624C117.051 66.664 117.211 65.128 117.211 63.016V41.512C117.211 39.016 117.083 37.16 116.827 35.944C116.635 34.728 116.027 33.896 115.003 33.448C114.043 32.936 112.379 32.52 110.011 32.2C109.819 31.304 109.819 30.472 110.011 29.704C115.515 28.616 120.571 27.144 125.179 25.288L126.811 25.864V33.064C129.755 30.376 132.635 28.488 135.451 27.4C138.267 26.312 140.955 25.768 143.515 25.768C147.739 25.768 150.971 27.016 153.211 29.512C155.451 32.008 156.571 35.592 156.571 40.264V62.056C156.571 64.552 156.699 66.344 156.955 67.432C157.275 68.52 157.915 69.224 158.875 69.544C159.835 69.8 161.371 69.992 163.483 70.12C163.611 71.08 163.611 72.072 163.483 73.096C161.563 73.096 159.675 73.064 157.819 73C156.027 72.936 153.915 72.904 151.483 72.904C149.115 72.904 147.035 72.936 145.243 73C143.515 73.064 141.755 73.096 139.963 73.096ZM327.202 73.096C325.346 73.096 323.458 73.064 321.538 73C319.618 72.936 317.474 72.904 315.106 72.904C312.738 72.904 310.626 72.936 308.77 73C306.914 73.064 305.026 73.096 303.106 73.096C302.914 72.072 302.914 71.08 303.106 70.12C305.282 69.992 306.882 69.8 307.906 69.544C308.93 69.224 309.602 68.584 309.922 67.624C310.242 66.664 310.402 65.128 310.402 63.016V14.92C310.402 12.936 310.21 11.464 309.826 10.504C309.506 9.48 308.77 8.776 307.618 8.392C306.53 7.944 304.866 7.624 302.626 7.432C302.434 6.6 302.434 5.736 302.626 4.84C305.186 4.52 307.81 4.04 310.498 3.4C313.186 2.696 315.938 1.73599 318.754 0.519995L320.386 1.096C320.322 2.504 320.258 4.10399 320.194 5.89599C320.194 7.688 320.194 9.64 320.194 11.752V62.056C320.194 64.552 320.322 66.344 320.578 67.432C320.898 68.52 321.538 69.224 322.498 69.544C323.522 69.8 325.09 69.992 327.202 70.12C327.33 71.08 327.33 72.072 327.202 73.096Z" fill="#FBC403"/>
<path d="M230.05 73.096C229.858 72.072 229.858 71.08 230.05 70.12C232.226 69.992 233.826 69.8 234.85 69.544C235.874 69.224 236.546 68.584 236.866 67.624C237.186 66.664 237.346 65.128 237.346 63.016V41.512C237.346 39.016 237.218 37.16 236.962 35.944C236.77 34.728 236.162 33.896 235.138 33.448C234.178 32.936 232.514 32.52 230.146 32.2C229.954 31.304 229.954 30.472 230.146 29.704C232.706 29.192 235.202 28.616 237.634 27.976C240.066 27.272 242.626 26.376 245.314 25.288L246.946 25.864V34.312C251.426 28.616 256.002 25.768 260.674 25.768C262.914 25.768 264.578 26.376 265.666 27.592C266.754 28.744 267.298 30.056 267.298 31.528C267.298 33.256 266.722 34.6 265.57 35.56C264.418 36.456 263.106 36.904 261.634 36.904C260.418 36.904 259.202 36.584 257.986 35.944C256.834 35.304 255.97 34.312 255.394 32.968C253.218 32.968 251.266 33.832 249.538 35.56C247.874 37.224 247.042 39.176 247.042 41.416V62.056C247.042 64.552 247.17 66.344 247.426 67.432C247.746 68.52 248.514 69.224 249.73 69.544C251.01 69.8 253.058 69.992 255.874 70.12C256.002 71.016 256.002 72.008 255.874 73.096C253.698 73.096 251.458 73.064 249.154 73C246.85 72.936 244.482 72.904 242.05 72.904C239.682 72.904 237.57 72.936 235.714 73C233.922 73.064 232.034 73.096 230.05 73.096ZM368.866 73.96C364.642 73.96 361.986 71.848 360.898 67.624C356.354 71.976 351.714 74.152 346.978 74.152C343.714 74.152 340.93 73.192 338.626 71.272C336.386 69.288 335.266 66.568 335.266 63.112C335.266 54.664 343.874 49.352 361.09 47.176C361.09 45.64 361.09 44.072 361.09 42.472C361.154 40.872 361.186 39.176 361.186 37.384C361.186 35.144 360.354 33.416 358.69 32.2C357.09 30.92 355.138 30.28 352.834 30.28C351.17 30.28 349.762 30.536 348.61 31.048C348.61 32.52 348.29 34.024 347.65 35.56C347.01 37.096 346.114 38.408 344.962 39.496C343.874 40.52 342.53 41.032 340.93 41.032C339.522 41.032 338.402 40.648 337.57 39.88C336.802 39.048 336.418 38.056 336.418 36.904C336.418 35.368 337.122 33.928 338.53 32.584C340.002 31.176 341.858 29.992 344.098 29.032C346.338 28.008 348.674 27.208 351.106 26.632C353.538 26.056 355.714 25.768 357.634 25.768C360.002 25.768 362.178 26.216 364.162 27.112C366.21 27.944 367.842 29.224 369.058 30.952C370.338 32.616 370.978 34.696 370.978 37.192C370.978 38.728 370.946 40.744 370.882 43.24C370.818 45.672 370.754 48.296 370.69 51.112C370.69 53.864 370.658 56.488 370.594 58.984C370.53 61.48 370.498 63.496 370.498 65.032C370.498 67.08 371.394 68.104 373.186 68.104C374.338 68.104 376.098 67.72 378.466 66.952C378.722 67.272 378.882 67.624 378.946 68.008C379.074 68.392 379.17 68.744 379.234 69.064C377.634 70.792 375.938 72.04 374.146 72.808C372.418 73.576 370.658 73.96 368.866 73.96ZM360.898 65.032L361.09 50.632C355.202 51.4 351.138 52.648 348.898 54.376C346.722 56.104 345.634 58.312 345.634 61C345.634 63.24 346.21 64.968 347.362 66.184C348.578 67.336 350.082 67.912 351.874 67.912C353.026 67.912 354.306 67.656 355.714 67.144C357.186 66.632 358.914 65.928 360.898 65.032Z" fill="#3BB15D"/>
</svg>
